<mxfile host="app.diagrams.net" modified="2023-07-13T05:45:54.976Z" agent="Mozilla/5.0 (Windows NT 10.0; Win64; x64) AppleWebKit/537.36 (KHTML, like Gecko) Chrome/112.0.0.0 Safari/537.36" version="21.6.1" etag="XxcVIJ4-58b9YBGulnke" type="github">
  <diagram name="第 1 页" id="NyhWgtjcrQZHIyVngTii">
    <mxGraphModel>
      <root>
        <mxCell id="0" />
        <mxCell id="1" parent="0" />
      </root>
    </mxGraphModel>
  </diagram>
</mxfile>
